<svg version="1.1" xmlns="http://www.w3.org/2000/svg" viewBox="0 0 1008.1208147321429 946.4701450892858">
  <!-- svg-source:excalidraw -->
  <defs>
    <style>
      @font-face {
        font-family: "Virgil";
        src: url("https://excalidraw.com/FG_Virgil.woff2");
      }
      @font-face {
        font-family: "Cascadia";
        src: url("https://excalidraw.com/Cascadia.woff2");
      }
    </style>
  </defs>
  <rect x="0" y="0" width="1008.1208147321429" height="946.4701450892858" fill="#ffffff"></rect><g stroke-opacity="0.3" fill-opacity="0.3" transform="translate(10 10) rotate(0 494.06040736607144 455.2350725446429)"><path d="M0 0 L988.1208147321428 0 L988.1208147321428 910.4701450892858 L0 910.4701450892858" stroke="none" stroke-width="0" fill="#ced4da"></path><path d="M0 0 C333.4781214078066 0, 666.9562428156132 0, 988.1208147321428 0 M0 0 C351.692739288636 0, 703.385478577272 0, 988.1208147321428 0 M988.1208147321428 0 C988.1208147321428 290.65964613963456, 988.1208147321428 581.3192922792691, 988.1208147321428 910.4701450892858 M988.1208147321428 0 C988.1208147321428 252.81991454247486, 988.1208147321428 505.6398290849497, 988.1208147321428 910.4701450892858 M988.1208147321428 910.4701450892858 C606.3931695906933 910.4701450892858, 224.665524449244 910.4701450892858, 0 910.4701450892858 M988.1208147321428 910.4701450892858 C705.1200873307477 910.4701450892858, 422.1193599293525 910.4701450892858, 0 910.4701450892858 M0 910.4701450892858 C0 566.4606201069416, 0 222.45109512459737, 0 0 M0 910.4701450892858 C0 666.6744977689112, 0 422.8788504485367, 0 0" stroke="#000000" stroke-width="2" fill="none"></path></g><g transform="translate(180.68917410714175 123.9439174107157) rotate(0 323.12709263392856 308.2449776785715)"><path d="M-0.09161121398210526 1.8350898697972298 L647.8772902499352 0.9005898907780647 L646.6288030158196 615.6632672537651 L-1.061438150703907 615.8089827288475" stroke="none" stroke-width="0" fill="#fff"></path><path d="M0.2294143468141556 0.45993506610393525 C233.0512909259673 -1.536985102132998, 467.01103676781577 -1.2353240875761133, 646.8926256652389 0.5564220160245895 M0.3892760142683983 0.342484749853611 C181.60895225590866 -0.34363242758460866, 363.11035304588876 -0.6230189956540666, 646.4403268884334 -0.3578331574797631 M646.1494791503463 0.13100163638591766 C644.8877454575778 159.7143196951403, 644.1834553536655 319.34448528807434, 645.8029174323592 615.7402680401292 M646.0581220697079 -0.1666378602385521 C644.550465389897 234.3247877574256, 644.2584980456129 468.90658355331243, 646.5529719899807 616.8238189865436 M646.7090629096542 617.088602543303 C463.1829706981419 615.3412915862865, 281.29416181182495 615.4020163215465, 0.6227476865053178 616.343530655333 M646.2572539876614 616.6201290298786 C392.7605606187044 615.1873832887321, 139.85682226683727 614.726462907186, 0.3288619384169579 616.5845846821155 M0.10240390598773957 617.2289012913193 C0.9380034632086922 454.6250487021499, 2.2114660448432137 291.77800458466015, 0.30785024464130406 -0.5608409196138382 M0.33877137750387193 616.5231188465442 C-2.206346990111966 458.3516698670578, -2.5640949740444614 300.47967309704393, -0.22309562116861345 -0.2487294301390648" stroke="#000000" stroke-width="1" fill="none"></path></g><g transform="translate(318.6495535714315 204.40569196428874) rotate(0 169.3219866071429 20.7589285714285)"><path d="M0 0 C116.02749795701783 0, 232.05499591403566 0, 338.6439732142858 0 M0 0 C127.8515210591494 0, 255.7030421182988 0, 338.6439732142858 0 M338.6439732142858 0 C338.6439732142858 11.231933043704204, 338.6439732142858 22.46386608740841, 338.6439732142858 41.517857142857025 M338.6439732142858 0 C338.6439732142858 12.70351812592704, 338.6439732142858 25.40703625185408, 338.6439732142858 41.517857142857025 M338.6439732142858 41.517857142857025 C257.5906545604085 41.517857142857025, 176.53733590653118 41.517857142857025, 0 41.517857142857025 M338.6439732142858 41.517857142857025 C263.3635221331809 41.517857142857025, 188.083071052076 41.517857142857025, 0 41.517857142857025 M0 41.517857142857025 C0 29.711974892000185, 0 17.906092641143342, 0 0 M0 41.517857142857025 C0 29.548804383957673, 0 17.57975162505832, 0 0" stroke="#000000" stroke-width="2" fill="none"></path></g><g transform="translate(335.85351562499625 205.37444196428692) rotate(0 74 17)"><text x="74" y="27" font-family="Cascadia" font-size="28px" fill="#000000" text-anchor="middle" style="white-space: pre;" direction="ltr">searchTxt</text></g><g transform="translate(252.20842633928368 323.7904575892867) rotate(0 59.591238839285694 56.8359375)"><path d="M-0.4924081042408943 -1.0315998122096062 C25.88952024537451 -2.2218764379956286, 52.64222953981413 -0.9904752329327624, 120.3041659774525 1.0158752873539925 M0.10981080308556557 0.6772757433354855 C44.374332238501154 -0.06751363959431611, 86.23208868978588 0.49410242352366485, 119.98969775385092 -0.6797461844980717 M118.93873514554332 -1.6958118006587029 C121.7207064684543 35.14442351993058, 119.40609527193635 68.32982027850814, 117.30959882161449 111.93657083064318 M119.4516337508602 0.4327654503285885 C118.09999883603348 29.41096346898121, 117.38031125497116 58.54244746785844, 119.03170674986075 113.80837520584464 M120.51527394673656 113.08053559809923 C94.78459449394828 113.93192287739397, 71.37147332973421 112.96317454632403, 1.4455346390604973 115.07443708926439 M119.2193202371044 114.09901794418693 C89.55930162003642 112.63735841386422, 58.8042855969626 111.63803850286111, -0.0691463015973568 113.91075059399009 M-0.4944811537861824 112.5721005871892 C1.6203675087745069 72.11565721433726, 1.058396082764375 26.409160435723606, -1.662573166191578 1.93069476634264 M-0.7505818866193295 114.333625998348 C-1.1000659988931147 76.16921681651729, -0.6190470980218379 38.108044786786195, -0.2949519418179989 0.37481650337576866" stroke="#000000" stroke-width="1" fill="none"></path></g><g transform="translate(419.81445312499864 326.76199776785825) rotate(0 59.59123883928572 56.8359375)"><path d="M-0.45653707534074783 -1.501163773238659 C48.58349459495575 -1.741015803787637, 94.16374080382647 -0.7789780020450834, 117.35296120068858 -0.5899038836359978 M0.633505079895258 -0.0762883760035038 C39.70570119315381 -0.38413276455633305, 81.4153217754065 -0.5881035544656958, 118.28000122255514 0.5589916370809078 M119.7479063453419 1.807173676788807 C116.31901615020513 22.042895700520607, 119.8360242163825 47.24340806849069, 119.69175280949901 112.89172000437975 M120.09514766878317 -0.506902489811182 C117.56133556701286 41.44502005240065, 118.22649753429039 82.04900787171209, 119.66570681280325 113.62541350349784 M118.63046016118358 115.2342931702733 C91.76926996581876 115.17912458124867, 64.61382165277817 114.46347378435841, -1.9468627646565437 112.65936226397753 M119.06395262426565 114.34897860512137 C77.95032332985909 115.05110598331053, 35.42651108257165 114.18903125053008, 0.43516168370842934 113.3615092895925 M1.4438099190592766 111.82047791033983 C-0.028485302420449443 74.02663720984128, 2.140576596764731 38.883622009831015, 1.5469428822398186 0.4798685982823372 M0.00928029790520668 113.64113518223166 C-0.9359174884593813 80.26422324331361, -0.5588185704982607 48.59870275337016, -0.5109122060239315 -0.2430969811975956" stroke="#000000" stroke-width="1" fill="none"></path></g><g transform="translate(611.0881696428551 330.2008928571436) rotate(0 59.59123883928572 56.8359375)"><path d="M-1.380171351134777 1.7487093731760979 C41.58387823207991 2.4194932269451135, 84.23390956578288 0.5112159537670128, 117.69668236694167 -0.8254876807332039 M-0.25625136867165565 0.490182850509882 C40.63995906837331 -0.7987068914512099, 81.07373282939288 -1.4373207115271986, 119.68133740818928 0.45800838246941566 M120.11872330627273 1.5126947686076164 C118.33692348524971 39.83094306549174, 119.91807139441414 79.46406410407508, 119.85606351814101 112.33393686264753 M118.78802018559406 -0.857643511146307 C120.69315403840199 36.843597925006186, 120.77655202290669 72.85548160359032, 119.05103152192066 114.63444731011987 M119.49899068794082 112.0713502690196 C80.58947691083867 113.91845159507491, 38.83323004047479 113.14904456115462, -1.0687587782740593 115.61688893288374 M119.66885321534107 113.50541040673852 C85.40052618392033 114.6249020347142, 50.588463648349205 113.0759107121968, 0.784997072070837 114.26554093137383 M1.7306014969944954 115.53673642128706 C-1.4739438753313152 68.59819767178851, -1.767750189799699 26.530684007739183, -0.610045962035656 0.4713665768504143 M-0.3506907559931278 113.47839245572686 C0.6544873946550069 72.54820024527726, -0.3059607512113871 31.06073035538428, 0.13234468922019005 0.4104933477938175" stroke="#000000" stroke-width="1" fill="none"></path></g><g transform="translate(254.53822544642708 484.4977678571422) rotate(0 59.59123883928572 56.8359375)"><path d="M1.7487093731760979 -0.04984741657972336 C48.44752465737631 1.7889194747097334, 93.17141776140075 -0.6633341053836503, 118.35698999783824 0.8841633275151253 M0.490182850509882 -0.38362303748726845 C32.597559983423196 -0.668024652060142, 64.42414869470565 0.8042664598859639, 119.64048606104086 0.5226301811635494 M120.69517244717906 -0.71082454174757 C119.74069934525221 33.62458935167525, 119.33142262139052 66.18211780808635, 117.84453954121898 114.06004685908556 M118.32483416742514 0.6900734566152096 C118.66604305859698 43.08106297327322, 118.37015308495654 84.48373690765584, 120.14504998869131 113.99985679611564 M117.58195294759105 114.74258584529161 C83.60034255673133 112.83866461132286, 46.965587329445825 112.79173024509666, 1.9450139328837395 113.43942923098803 M119.01601308530996 114.25949367508292 C86.69116508929439 114.39667572479031, 51.70979624977295 115.03654648761533, 0.5936659313738346 114.52004834637046 M1.8648614212870598 112.39754194766283 C-1.9166811179165961 76.00606490325299, -0.24128682127047796 40.86648757808143, 0.4713665768504143 1.3360311463475227 M-0.19348254427313805 114.07598039135337 C1.1672773918398889 81.51778977850336, 1.3748282751330407 50.608734755252954, 0.4104933477938175 0.9243913553655148" stroke="#000000" stroke-width="1" fill="none"></path></g><g transform="translate(430.6124441964266 482.572544642856) rotate(0 59.59123883928572 56.8359375)"><path d="M-0.04984741657972336 1.8153542801737785 C30.679812104321698 -1.135000572178667, 57.9409123600864 -1.8675652599075487, 120.06664100608657 -0.552017517387867 M-0.38362303748726845 0.13235745206475258 C44.091955356402785 -1.0904684344043616, 90.62963320707995 -0.12620368392370973, 119.705107859735 -0.11852505430579185 M118.47165313682387 -0.21145469695329666 C120.58492502579509 41.177594715525636, 120.3881874979478 82.25871413532879, 119.570649537657 115.11568491905928 M119.87255113518665 0.5358242727816105 C119.50756189134597 23.81890787158045, 118.60264429357528 48.12051945499843, 119.51045947468708 113.6811552979052 M120.25318852386306 113.9550880715251 C82.77227472745395 112.23190852248445, 47.3369618221581 114.66311641776338, -0.23244576901197433 113.28215902298689 M119.77009635365437 114.61293992772698 C83.45323961437369 112.865551978503, 48.218746003755115 114.06714430466725, 0.8481733463704586 113.84747764840722 M-1.2743330523371696 112.34110563248396 C-2.551742952011409 74.05581992512452, -1.5936495472415118 34.22188156883931, 1.3360311463475227 -0.44053465873003006 M0.40410539135336876 114.24322101846337 C-0.15770599672396202 86.30852313552168, 0.5309814470092533 57.797870815324124, 0.9243913553655148 -0.7048851512372494" stroke="#000000" stroke-width="1" fill="none"></path></g><g transform="translate(615.0990513392844 483.4095982142835) rotate(0 59.59123883928572 56.8359375)"><path d="M1.8153542801737785 0.9664582684636116 C27.437208248105893 -1.4560906185605356, 54.23477480148723 0.9138680205843619, 118.63046016118358 1.562418170273304 M0.13235745206475258 -0.9734313823282719 C32.1944196328789 0.9560711706409556, 65.85936038424968 0.9798416221866709, 119.06395262426565 0.6771036051213741 M118.97102298161815 0.8703233674168587 C119.42150051100805 40.096388137637405, 118.70429379447057 79.23377645522123, 120.62628759763072 111.82047791033983 M119.71830195135306 0.7734714411199093 C118.44751251777677 29.4862440598954, 119.17015052875547 59.563362229208, 119.19175797647665 113.64113518223166 M119.46569075009654 112.65005058795214 C81.05540017889768 113.2411660788218, 45.84572453689803 114.07747908808389, -0.3897159770131111 113.69194860011339 M120.12354260629843 113.81700130924582 C77.02306382476465 115.15721056833665, 36.67316869191252 115.22038684263627, 0.17560264840722084 114.18731626495719 M-1.3307693675160408 112.10373563319445 C-0.7152865427342476 69.12423068590579, -0.5885448950139107 27.132709442230407, -0.44053465873003006 -1.0485115572810173 M0.5713460184633732 113.11553224548697 C0.9988321376295062 83.68902476711082, 0.6304285836667987 54.36587651114678, -0.7048851512372494 0.48886462673544884" stroke="#000000" stroke-width="1" fill="none"></path></g><g transform="translate(606.3378906249985 207.8864397321438) rotate(0 11.220005580357167 10.407366071428555)"><path d="M11.220005580357167 0 C13.503831093451849 -0.13287508244204727, 16.590494733961922 1.0015034717703308, 18.432086148024585 2.434861124905722 C20.273677562087247 3.868218778041113, 21.852099182145633 6.404114588439494, 22.269554064733143 8.600145918812347 C22.687008947320653 10.796177249185199, 22.13882887149421 13.679891565183624, 20.93681544354964 15.611049107142833 C19.734802015605073 17.54220664910204, 17.3165197937159 19.424417493330136, 15.057473497065729 20.187091170567598 C12.798427200415556 20.94976484780506, 9.641583960298778 20.94976484780506, 7.3825376636486055 20.187091170567598 C5.123491366998433 19.424417493330136, 2.705209145109265 17.54220664910204, 1.5031957171646955 15.611049107142833 C0.30118228922012613 13.679891565183624, -0.2469977866063191 10.796177249185197, 0.17045709598118997 8.600145918812345 C0.587911978568699 6.4041145884394926, 2.1663335986270873 3.868218778041114, 4.00792501268975 2.434861124905723 C5.8495164267524125 1.001503471770332, 10.017992152412596 0.3711189672461919, 11.220005580357165 0 C12.422019008301735 -0.3711189672461919, 11.220005580357167 0.034691220238095205, 11.220005580357167 0.20814732142857117 M11.220005580357167 0 C13.503831093451849 -0.13287508244204727, 16.590494733961922 1.0015034717703308, 18.432086148024585 2.434861124905722 C20.273677562087247 3.868218778041113, 21.852099182145633 6.404114588439494, 22.269554064733143 8.600145918812347 C22.687008947320653 10.796177249185199, 22.13882887149421 13.679891565183624, 20.93681544354964 15.611049107142833 C19.734802015605073 17.54220664910204, 17.3165197937159 19.424417493330136, 15.057473497065729 20.187091170567598 C12.798427200415556 20.94976484780506, 9.641583960298778 20.94976484780506, 7.3825376636486055 20.187091170567598 C5.123491366998433 19.424417493330136, 2.705209145109265 17.54220664910204, 1.5031957171646955 15.611049107142833 C0.30118228922012613 13.679891565183624, -0.2469977866063191 10.796177249185197, 0.17045709598118997 8.600145918812345 C0.587911978568699 6.4041145884394926, 2.1663335986270873 3.868218778041114, 4.00792501268975 2.434861124905723 C5.8495164267524125 1.001503471770332, 10.017992152412596 0.3711189672461919, 11.220005580357165 0 C12.422019008301735 -0.3711189672461919, 11.220005580357167 0.034691220238095205, 11.220005580357167 0.20814732142857117" stroke="#000000" stroke-width="2" fill="none"></path></g><g><g transform="translate(631.296037946427 225.08789062500068) rotate(0 8.530970982142833 5.228097098214278)"><path d="M0 0 C2.843656994047611 1.7426990327380925, 14.218284970238054 8.713495163690462, 17.061941964285666 10.456194196428555 M0 0 C2.843656994047611 1.7426990327380925, 14.218284970238054 8.713495163690462, 17.061941964285666 10.456194196428555" stroke="#000000" stroke-width="2" fill="none"></path></g></g><g stroke-opacity="0.9" fill-opacity="0.9" transform="translate(304.23214285714084 364.0518973214298) rotate(0 8 17)"><text x="8" y="27" font-family="Cascadia" font-size="28px" fill="#000000" text-anchor="middle" style="white-space: pre;" direction="ltr">A</text></g><g transform="translate(471.40569196428453 366.16545758928714) rotate(0 8 17)"><text x="8" y="27" font-family="Cascadia" font-size="28px" fill="#000000" text-anchor="middle" style="white-space: pre;" direction="ltr">B</text></g><g transform="translate(662.6794084821408 370.0368303571436) rotate(0 8 17)"><text x="8" y="27" font-family="Cascadia" font-size="28px" fill="#000000" text-anchor="middle" style="white-space: pre;" direction="ltr">C</text></g><g transform="translate(306.12946428571286 524.3337053571422) rotate(0 8 17)"><text x="8" y="27" font-family="Cascadia" font-size="28px" fill="#000000" text-anchor="middle" style="white-space: pre;" direction="ltr">D</text></g><g transform="translate(482.2036830357124 522.408482142856) rotate(0 8 17)"><text x="8" y="27" font-family="Cascadia" font-size="28px" fill="#000000" text-anchor="middle" style="white-space: pre;" direction="ltr">E</text></g><g transform="translate(666.6902901785702 523.2455357142835) rotate(0 8 17)"><text x="8" y="27" font-family="Cascadia" font-size="28px" fill="#000000" text-anchor="middle" style="white-space: pre;" direction="ltr">F</text></g><g><g transform="translate(765.9919084821402 169.2633928571438) rotate(0 -12.50348772321422 16.238839285714334)"><path d="M0 0 C-4.167829241071407 5.412946428571445, -20.839146205357036 27.064732142857224, -25.00697544642844 32.47767857142867 M0 0 C-4.167829241071407 5.412946428571445, -20.839146205357036 27.064732142857224, -25.00697544642844 32.47767857142867" stroke="#000000" stroke-width="2" fill="none"></path></g></g><g><g transform="translate(739.8479352678548 167.20563616071422) rotate(0 13.30915178571422 16.252790178571445)"><path d="M0 0 C4.436383928571407 5.417596726190482, 22.181919642857036 27.087983630952408, 26.61830357142844 32.50558035714289 M0 0 C4.436383928571407 5.417596726190482, 22.181919642857036 27.087983630952408, 26.61830357142844 32.50558035714289" stroke="#000000" stroke-width="2" fill="none"></path></g></g><g transform="translate(830.1208147321429 926.4701450892858) rotate(0 84 10)"><text x="84" y="14" font-family="Virgil" font-size="16px" fill="#adb5bd" text-anchor="middle" style="white-space: pre;" direction="ltr">Made with Excalidraw</text></g></svg>